<?xml version="1.0" encoding="UTF-8"?>
<svg width="800" height="600" viewBox="0 0 800 600" fill="none" xmlns="http://www.w3.org/2000/svg">
  <!-- Background with gradient -->
  <defs>
    <linearGradient id="bg-gradient" x1="0%" y1="0%" x2="0%" y2="100%">
      <stop offset="0%" stop-color="#e8f4f8" />
      <stop offset="100%" stop-color="#f0f0f0" />
    </linearGradient>
  </defs>
  <rect width="800" height="600" fill="url(#bg-gradient)"/>
  
  <!-- Landscape elements -->
  <path d="M0 350 Q200 280 400 350 Q600 400 800 350 L800 600 L0 600 Z" fill="#e6f7e9"/>
  <path d="M0 600 L800 600 L800 450 Q600 480 400 450 Q200 430 0 450 Z" fill="#c8e6d0"/>
  
  <!-- Road -->
  <rect x="50" y="450" width="700" height="50" fill="#888888" rx="2"/>
  <rect x="100" y="474" width="100" height="2" fill="#ffffff"/>
  <rect x="250" y="474" width="100" height="2" fill="#ffffff"/>
  <rect x="400" y="474" width="100" height="2" fill="#ffffff"/>
  <rect x="550" y="474" width="100" height="2" fill="#ffffff"/>
  
  <!-- Luxury RV -->
  <g transform="translate(150, 100) scale(0.9)">
    <!-- RV Main Body -->
    <rect x="100" y="200" width="600" height="180" rx="15" fill="#ffffff" stroke="#333333" stroke-width="4"/>
    
    <!-- RV Windshield -->
    <path d="M100 300 L160 220 H250 V300 H100 Z" fill="#a8c7dc" stroke="#333333" stroke-width="2"/>
    
    <!-- Exterior Details -->
    <rect x="100" y="330" width="600" height="50" rx="2" fill="#e6e6e6" stroke="#333333" stroke-width="2"/>
    
    <!-- Side Door -->
    <rect x="300" y="250" width="60" height="100" rx="5" fill="#e6e6e6" stroke="#333333" stroke-width="2"/>
    <circle cx="350" cy="300" r="5" fill="#333333"/>
    
    <!-- Windows -->
    <rect x="400" y="240" width="80" height="50" rx="5" fill="#a8c7dc" stroke="#333333" stroke-width="2"/>
    <rect x="520" y="240" width="80" height="50" rx="5" fill="#a8c7dc" stroke="#333333" stroke-width="2"/>
    
    <!-- Wheels -->
    <circle cx="200" cy="380" r="40" fill="#333333"/>
    <circle cx="200" cy="380" r="25" fill="#666666"/>
    <circle cx="200" cy="380" r="15" fill="#999999"/>
    
    <circle cx="550" cy="380" r="40" fill="#333333"/>
    <circle cx="550" cy="380" r="25" fill="#666666"/>
    <circle cx="550" cy="380" r="15" fill="#999999"/>
    
    <!-- RV Accessories -->
    <rect x="650" y="210" width="30" height="100" rx="2" fill="#cccccc" stroke="#333333" stroke-width="2"/>
    
    <!-- Awning -->
    <path d="M300 220 L500 220 L530 250 L270 250 Z" fill="#e1e1e1" stroke="#333333" stroke-width="1"/>
    
    <!-- Design Elements -->
    <path d="M120 280 L680 280" stroke="#3366cc" stroke-width="10" opacity="0.7"/>
    <path d="M120 310 L680 310" stroke="#3366cc" stroke-width="3" opacity="0.7"/>
  </g>
  
  <!-- Text and Labels -->
  <text x="400" y="520" font-family="Arial, sans-serif" font-size="28" font-weight="bold" text-anchor="middle" fill="#333333">LuxuryRV Marketplace</text>
  <text x="400" y="550" font-family="Arial, sans-serif" font-size="20" text-anchor="middle" fill="#555555">Image Currently Unavailable</text>
</svg>